<svg width="202" height="32" viewBox="0 0 202 32" fill="none" xmlns="http://www.w3.org/2000/svg">
<path d="M83.0334 29.7417V2.25742H104.117V7.85829H90.1945V13.7792H102.436V19.2601H90.1945V29.7417H83.0334Z" fill="white"/>
<path d="M107.062 29.7417V2.25742H114.223V29.7417H107.062Z" fill="white"/>
<path d="M125.509 29.7417V8.13834H116.588V2.25742H141.592V8.13834H132.67V29.7417H125.509Z" fill="white"/>
<path d="M155.413 30.2218C150.986 30.2218 147.612 29.0483 145.292 26.7012C142.998 24.3542 141.851 20.7803 141.851 15.9796C141.851 12.8057 142.411 10.1787 143.531 8.09833C144.678 5.99134 146.332 4.41776 148.492 3.37759C150.679 2.31076 153.306 1.77734 156.373 1.77734C158.214 1.77734 159.947 1.99071 161.574 2.41744C163.201 2.84418 164.641 3.48428 165.895 4.33774C167.148 5.16454 168.122 6.21804 168.815 7.49824C169.509 8.75177 169.855 10.232 169.855 11.9389H162.814C162.814 11.2188 162.654 10.5787 162.334 10.0186C162.014 9.43187 161.561 8.9518 160.974 8.57841C160.414 8.17834 159.761 7.88497 159.014 7.69827C158.267 7.4849 157.48 7.37822 156.653 7.37822C155.426 7.37822 154.333 7.53824 153.373 7.85829C152.439 8.17834 151.666 8.67175 151.052 9.33852C150.439 10.0053 149.972 10.8188 149.652 11.7789C149.359 12.7391 149.212 13.8592 149.212 15.1394V16.8997C149.212 18.6066 149.479 20.0335 150.012 21.1804C150.546 22.3272 151.346 23.194 152.413 23.7808C153.506 24.3409 154.84 24.6209 156.413 24.6209C157.64 24.6209 158.734 24.4342 159.694 24.0608C160.681 23.6874 161.454 23.154 162.014 22.4606C162.601 21.7405 162.894 20.887 162.894 19.9002V19.7001H155.493V14.6594H169.855V29.7417H165.695L165.015 26.8613C164.188 27.608 163.294 28.2348 162.334 28.7416C161.401 29.2483 160.361 29.6217 159.214 29.8617C158.094 30.1018 156.827 30.2218 155.413 30.2218Z" fill="white"/>
<path d="M187.115 30.2218C184.101 30.2218 181.514 29.7017 179.354 28.6615C177.22 27.5947 175.58 26.0078 174.433 23.9008C173.286 21.7938 172.713 19.1534 172.713 15.9796C172.713 12.8057 173.286 10.1787 174.433 8.09833C175.58 5.99134 177.22 4.41776 179.354 3.37759C181.514 2.31076 184.101 1.77734 187.115 1.77734C190.129 1.77734 192.703 2.31076 194.837 3.37759C196.997 4.41776 198.65 5.99134 199.797 8.09833C200.944 10.1787 201.518 12.8057 201.518 15.9796C201.518 19.1534 200.944 21.7938 199.797 23.9008C198.65 26.0078 196.997 27.5947 194.837 28.6615C192.703 29.7017 190.129 30.2218 187.115 30.2218ZM187.115 24.6209C188.262 24.6209 189.276 24.4476 190.156 24.1008C191.036 23.7541 191.769 23.2474 192.356 22.5806C192.97 21.9138 193.423 21.1004 193.716 20.1402C194.01 19.1801 194.156 18.0999 194.156 16.8997V15.1394C194.156 13.9126 194.01 12.8191 193.716 11.8589C193.423 10.8988 192.97 10.0853 192.356 9.41854C191.769 8.75177 191.036 8.24502 190.156 7.8983C189.276 7.55158 188.262 7.37822 187.115 7.37822C185.942 7.37822 184.915 7.55158 184.035 7.8983C183.155 8.24502 182.421 8.75177 181.834 9.41854C181.248 10.0853 180.808 10.8988 180.514 11.8589C180.221 12.8191 180.074 13.9126 180.074 15.1394V16.8997C180.074 18.0999 180.221 19.1801 180.514 20.1402C180.808 21.1004 181.248 21.9138 181.834 22.5806C182.421 23.2474 183.155 23.7541 184.035 24.1008C184.915 24.4476 185.942 24.6209 187.115 24.6209Z" fill="white"/>
<path d="M0 31.8261L11.9127 31.8261L27.8351 15.913L11.9127 0L5.3074e-06 0L15.9224 15.913L0 31.8261Z" fill="#FE4F31"/>
<path d="M60.0729 31.8261L48.1602 31.8261L32.2378 15.913L48.1602 0L60.0729 0L44.1505 15.913L60.0729 31.8261Z" fill="#FE4F31"/>
<path d="M15.835 31.8261H27.7477L43.6701 15.913L27.7477 0L15.835 0L31.7574 15.913L15.835 31.8261Z" fill="#FE4F31"/>
<path d="M75.9224 32L64.0097 32L48.0873 16.087L64.0097 0.173913L75.9224 0.173913L60 16.087L75.9224 32Z" fill="#FE4F31"/>
</svg>
