<svg width="56" height="56" viewBox="0 0 56 56" fill="none" xmlns="http://www.w3.org/2000/svg">
<rect width="56" height="56" rx="28" fill="#C3FF44" fill-opacity="0.15"/>
<path d="M35.26 28.6601L19.705 27.3551C19.0991 27.3093 18.4898 27.3702 17.905 27.5351C16.7212 27.8443 15.6736 28.5381 14.927 29.5074C14.1803 30.4767 13.7768 31.6666 13.78 32.8901V33.1151C13.7791 33.8745 13.9344 34.6259 14.2363 35.3226C14.5382 36.0194 14.9803 36.6465 15.535 37.1651C15.8381 37.4444 16.17 37.6908 16.525 37.9001C17.2821 38.3355 18.1286 38.592 19 38.6501C19.2244 38.6726 19.4505 38.6726 19.675 38.6501L35.14 37.3751C36.2436 37.2955 37.2762 36.8012 38.0303 35.9915C38.7844 35.1817 39.2041 34.1166 39.205 33.0101V32.9201C39.2079 31.8428 38.8026 30.8044 38.0706 30.014C37.3386 29.2235 36.3343 28.7398 35.26 28.6601Z" stroke="#C3FF44" stroke-width="2" stroke-linecap="round" stroke-linejoin="round"/>
<path d="M19 20.5L14.5 20.575C14.1538 20.5801 13.8112 20.5047 13.4991 20.3548C13.1871 20.2049 12.9141 19.9845 12.7018 19.7111C12.4894 19.4377 12.3435 19.1187 12.2755 18.7792C12.2075 18.4397 12.2193 18.0891 12.31 17.755C12.448 17.2489 12.7717 16.8135 13.2165 16.5354C13.6613 16.2574 14.1946 16.1573 14.71 16.255L19 17.785C19.2848 17.8373 19.5456 17.9787 19.7447 18.1889C19.9438 18.3991 20.071 18.6672 20.1077 18.9544C20.1444 19.2416 20.0889 19.5331 19.9491 19.7867C19.8093 20.0402 19.5925 20.2428 19.33 20.365L19.09 20.5C19.0605 20.5076 19.0295 20.5076 19 20.5Z" stroke="#C3FF44" stroke-width="2" stroke-linecap="round" stroke-linejoin="round"/>
<path d="M17.905 27.535L15.535 20.5" stroke="#C3FF44" stroke-width="2" stroke-linecap="round" stroke-linejoin="round"/>
<path d="M29.785 16.4351L35.26 28.6601" stroke="#C3FF44" stroke-width="2" stroke-linecap="round" stroke-linejoin="round"/>
<path d="M28 16.4351H33.55C34.3297 16.4319 35.0775 16.1252 35.635 15.5801C36.1856 15.025 36.4978 14.2769 36.505 13.4951" stroke="#C3FF44" stroke-width="2" stroke-linecap="round" stroke-linejoin="round"/>
<path d="M26.935 27.9999C26.9706 27.7189 27.085 27.4536 27.265 27.2349C28.0572 26.3031 29.0342 25.546 30.1342 25.0114C31.2342 24.4767 32.4332 24.1763 33.6553 24.1291C34.8774 24.0819 36.096 24.289 37.2339 24.7372C38.3719 25.1854 39.4043 25.865 40.266 26.7329C41.1277 27.6008 41.7998 28.6382 42.2397 29.7793C42.6797 30.9205 42.8779 32.1405 42.8219 33.3623C42.7659 34.584 42.4568 35.7808 41.9143 36.8769C41.3717 37.973 40.6075 38.9445 39.67 39.7299C38.7861 40.4722 37.7675 41.0374 36.67 41.3949C35.7871 41.6746 34.8662 41.8162 33.94 41.8149C32.6657 41.8139 31.4067 41.5372 30.2493 41.0038C29.0919 40.4705 28.0637 39.6931 27.235 38.7249C27.0532 38.5131 26.9384 38.2521 26.905 37.9749L35.14 37.3449C36.2437 37.2653 37.2763 36.771 38.0303 35.9613C38.7844 35.1515 39.2041 34.0864 39.205 32.9799V32.8899C39.2036 31.8104 38.7925 30.7716 38.0546 29.9836C37.3167 29.1956 36.3072 28.7171 35.23 28.6449L26.935 27.9999Z" stroke="#C3FF44" stroke-width="2" stroke-linecap="round" stroke-linejoin="round"/>
<path d="M17.905 38.635L15.16 42.55" stroke="#C3FF44" stroke-width="2" stroke-linecap="round" stroke-linejoin="round"/>
<path d="M40.84 38.5901L43.735 42.5501" stroke="#C3FF44" stroke-width="2" stroke-linecap="round" stroke-linejoin="round"/>
</svg>
