<svg width="56" height="56" viewBox="0 0 56 56" fill="none" xmlns="http://www.w3.org/2000/svg">
<rect width="56" height="56" rx="28" fill="#C3FF44" fill-opacity="0.15"/>
<path d="M37 20.1699C37.1093 20.1781 37.2127 20.2223 37.2941 20.2956C37.3756 20.3689 37.4304 20.4671 37.45 20.5749C38.17 23.5749 41.47 31.4499 40.675 35.5749C39.655 40.8849 37.675 42.7299 34.255 43.2099C30.835 43.6899 19.39 42.9999 19.39 42.9999C15.055 42.1899 12.25 39.5499 12.25 35.6049C12.242 34.0159 12.7654 32.4698 13.737 31.2124C14.7086 29.955 16.0727 29.0585 17.6123 28.6654C19.152 28.2723 20.7788 28.4052 22.2343 29.0429C23.6898 29.6806 24.8903 30.7866 25.645 32.1849C26.6209 31.7076 27.6936 31.4612 28.78 31.4649C29.6031 31.4653 30.4201 31.6074 31.195 31.8849C30.6862 30.5068 30.4271 29.049 30.43 27.5799C30.4586 26.0932 30.2354 24.6123 29.77 23.1999C29.3711 21.9494 28.5351 20.8843 27.415 20.1999L28.825 20.3649C29.2 18.3549 30.61 16.2399 32.14 16.9449C33.67 17.6499 32.14 19.4649 32.14 19.4649C32.3671 19.8467 32.6335 20.2037 32.935 20.5299C34.405 20.4999 35.95 20.3049 37 20.1699Z" stroke="#C3FF44" stroke-width="2" stroke-linecap="round" stroke-linejoin="round"/>
<path d="M34 21.5349C33.6372 21.2453 33.3009 20.9241 32.995 20.5749M28.885 20.4099C28.8453 20.6128 28.8202 20.8184 28.81 21.0249" stroke="#C3FF44" stroke-width="2" stroke-linecap="round" stroke-linejoin="round"/>
<path d="M25.645 32.2151C24.8144 32.6706 24.1637 33.3954 23.8 34.2701" stroke="#C3FF44" stroke-width="2" stroke-linecap="round" stroke-linejoin="round"/>
<path d="M31.225 31.915C31.225 31.915 32.515 32.215 33.625 34.27" stroke="#C3FF44" stroke-width="2" stroke-linecap="round" stroke-linejoin="round"/>
<path d="M25.87 15.2199C25.87 14.6815 25.6571 14.1649 25.2778 13.7827C24.8985 13.4006 24.3834 13.1839 23.845 13.1799H22.105C21.8378 13.1799 21.5732 13.2328 21.3266 13.3355C21.0799 13.4382 20.856 13.5887 20.6678 13.7783C20.4795 13.968 20.3307 14.193 20.2298 14.4404C20.1289 14.6878 20.078 14.9527 20.08 15.2199V20.2599C20.078 20.5271 20.1289 20.7921 20.2298 21.0395C20.3307 21.2869 20.4795 21.5119 20.6678 21.7015C20.856 21.8912 21.0799 22.0417 21.3266 22.1444C21.5732 22.2471 21.8378 22.2999 22.105 22.2999H23.845C24.3834 22.296 24.8985 22.0793 25.2778 21.6972C25.6571 21.315 25.87 20.7984 25.87 20.2599V15.2199Z" stroke="#C3FF44" stroke-width="2" stroke-linecap="round" stroke-linejoin="round"/>
<path d="M37.945 20.26V15.22C37.945 14.9508 37.9983 14.6843 38.1017 14.4358C38.2052 14.1873 38.3568 13.9618 38.5478 13.7722C38.7388 13.5825 38.9655 13.4326 39.2147 13.3309C39.464 13.2293 39.7308 13.178 40 13.18H41.74C42.2758 13.1879 42.787 13.4063 43.1631 13.788C43.5393 14.1697 43.7501 14.6841 43.75 15.22V20.26C43.75 20.7984 43.5371 21.3151 43.1578 21.6972C42.7785 22.0794 42.2634 22.296 41.725 22.3H39.76C39.2588 22.2444 38.796 22.0051 38.4609 21.6284C38.1257 21.2517 37.9419 20.7642 37.945 20.26Z" stroke="#C3FF44" stroke-width="2" stroke-linecap="round" stroke-linejoin="round"/>
<path d="M27.445 20.2451L25.87 20.0201V15.5201L26.5 15.3701L27.505 15.2351C27.895 16.2251 29.74 16.7351 32.005 16.7351C34.27 16.7351 36.055 16.1951 36.505 15.2351L37.135 15.3251L38.035 15.4751V19.9751L37 20.1701C36.01 20.3051 34.465 20.5001 33.025 20.5751C32.7223 20.2462 32.4511 19.8896 32.215 19.5101C32.215 19.5101 33.895 17.7701 32.215 16.9901C30.535 16.2101 29.29 18.4001 28.915 20.4101L27.445 20.2451Z" stroke="#C3FF44" stroke-width="2" stroke-linecap="round" stroke-linejoin="round"/>
<path d="M27.52 15.235C27.4978 14.9454 27.4978 14.6546 27.52 14.365C27.52 13.12 29.545 12.52 32.02 12.52C34.495 12.52 36.52 13.12 36.52 14.365C36.5173 14.6565 36.4923 14.9474 36.445 15.235C36.04 16.225 34.195 16.735 31.945 16.735C29.695 16.735 27.91 16.225 27.52 15.235Z" stroke="#C3FF44" stroke-width="2" stroke-linecap="round" stroke-linejoin="round"/>
</svg>
