<svg width="56" height="56" viewBox="0 0 56 56" fill="none" xmlns="http://www.w3.org/2000/svg">
<rect width="56" height="56" rx="28" fill="#C3FF44" fill-opacity="0.15"/>
<path d="M24.415 29.2601L19.075 33.5051C18.9152 33.6101 18.7358 33.6816 18.5475 33.7151C18.3593 33.7486 18.1662 33.7435 17.98 33.7001C17.98 33.7001 11.35 33.7001 12.355 29.5001C12.437 29.1523 12.6536 28.8511 12.9573 28.6628C13.261 28.4744 13.6269 28.4141 13.975 28.4951L18.025 29.4551C18.025 29.4551 22.705 24.9551 28 24.9551C33.295 24.9551 37.945 29.4551 37.945 29.4551L41.995 28.4951C42.3431 28.4141 42.709 28.4744 43.0127 28.6628C43.3164 28.8511 43.533 29.1523 43.615 29.5001C44.62 33.7151 37.99 33.7151 37.99 33.7151C37.8038 33.7585 37.6107 33.7636 37.4225 33.7301C37.2342 33.6966 37.0548 33.6251 36.895 33.5201L31.555 29.2751C31.5687 30.7419 31.7806 32.2001 32.185 33.6101C33.205 35.3501 35.965 36.0851 38.05 37.7201C40.42 39.5651 39.235 43.4951 34.39 41.2751C32.3323 40.3299 30.1936 39.5718 28 39.0101C25.7905 39.561 23.6364 40.3142 21.565 41.2601C16.72 43.4801 15.565 39.5501 17.905 37.7051C19.99 36.0701 22.75 35.3351 23.77 33.5951C24.1795 32.1858 24.3964 30.7275 24.415 29.2601Z" stroke="#C3FF44" stroke-width="2" stroke-linecap="round" stroke-linejoin="round"/>
<path d="M32.17 38.26C28.5009 38.6804 24.9244 39.6936 21.58 41.26" stroke="#C3FF44" stroke-width="2" stroke-linecap="round" stroke-linejoin="round"/>
<path d="M28 21.2349C29.9799 21.2349 31.585 19.6299 31.585 17.6499C31.585 15.67 29.9799 14.0649 28 14.0649C26.02 14.0649 24.415 15.67 24.415 17.6499C24.415 19.6299 26.02 21.2349 28 21.2349Z" stroke="#C3FF44" stroke-width="2" stroke-linecap="round" stroke-linejoin="round"/>
</svg>
