<svg width="56" height="56" viewBox="0 0 56 56" fill="none" xmlns="http://www.w3.org/2000/svg">
<rect width="56" height="56" rx="28" fill="#C3FF44" fill-opacity="0.15"/>
<path d="M20.74 24.2949C20.74 23.4993 20.4239 22.7362 19.8613 22.1736C19.2987 21.611 18.5356 21.2949 17.74 21.2949H15.22C14.4244 21.2949 13.6613 21.611 13.0987 22.1736C12.5361 22.7362 12.22 23.4993 12.22 24.2949V31.7049C12.22 32.5006 12.5361 33.2636 13.0987 33.8262C13.6613 34.3889 14.4244 34.7049 15.22 34.7049H17.77C18.5656 34.7049 19.3287 34.3889 19.8913 33.8262C20.4539 33.2636 20.77 32.5006 20.77 31.7049L20.74 24.2949Z" stroke="#C3FF44" stroke-width="2" stroke-linecap="round" stroke-linejoin="round"/>
<path d="M43.75 24.2949C43.75 23.4993 43.4339 22.7362 42.8713 22.1736C42.3087 21.611 41.5456 21.2949 40.75 21.2949H38.2C37.4043 21.2949 36.6413 21.611 36.0787 22.1736C35.5161 22.7362 35.2 23.4993 35.2 24.2949V31.7049C35.2 32.5006 35.5161 33.2636 36.0787 33.8262C36.6413 34.3889 37.4043 34.7049 38.2 34.7049H40.75C41.5456 34.7049 42.3087 34.3889 42.8713 33.8262C43.4339 33.2636 43.75 32.5006 43.75 31.7049V24.2949Z" stroke="#C3FF44" stroke-width="2" stroke-linecap="round" stroke-linejoin="round"/>
<path d="M35.26 31.315V24.685C32.8818 24.1135 30.4459 23.8166 28 23.8C25.5581 23.8158 23.1265 24.1178 20.755 24.7V31.345C23.134 31.8794 25.562 32.166 28 32.2C30.4445 32.1621 32.878 31.8654 35.26 31.315Z" stroke="#C3FF44" stroke-width="2" stroke-linecap="round" stroke-linejoin="round"/>
</svg>
