<svg width="222" height="26" viewBox="0 0 222 26" fill="none" xmlns="http://www.w3.org/2000/svg">
<path d="M22.0387 25H12.6067L1.52588e-05 12.5L12.6067 0L22.0387 0L9.43201 12.5L22.0387 25Z" fill="white"/>
<path d="M35.0258 25L25.5938 25L12.9871 12.5L25.5938 0L35.0258 0L22.4191 12.5L35.0258 25Z" fill="white"/>
<path d="M199.487 25H208.919L221.526 12.5L208.919 0L199.487 0L212.094 12.5L199.487 25Z" fill="white"/>
<path d="M186.5 25L195.932 25L208.539 12.5L195.932 0L186.5 0L199.107 12.5L186.5 25Z" fill="white"/>
<path d="M43.1855 22V3.08398H50.2822C51.7379 3.08398 52.9567 3.35482 53.9384 3.89648C54.9287 4.43815 55.6777 5.18294 56.1855 6.13086C56.6933 7.07878 56.9472 8.15365 56.9472 9.35547C56.9472 10.5658 56.6891 11.6449 56.1728 12.5928C55.665 13.5322 54.9117 14.2728 53.913 14.8145C52.9143 15.3477 51.6871 15.6143 50.2314 15.6143H45.5341V12.7959H49.7617C50.6165 12.7959 51.3147 12.652 51.8564 12.3643C52.4065 12.068 52.8085 11.6618 53.0624 11.1455C53.3248 10.6208 53.456 10.0241 53.456 9.35547C53.456 8.67839 53.3248 8.08594 53.0624 7.57812C52.8085 7.06185 52.4065 6.66406 51.8564 6.38477C51.3147 6.09701 50.6123 5.95312 49.749 5.95312H46.6132V22H43.1855ZM58.1731 22V3.08398H65.2698C66.7255 3.08398 67.9442 3.33789 68.926 3.8457C69.9162 4.35352 70.6653 5.06445 71.1731 5.97852C71.6809 6.88411 71.9348 7.93783 71.9348 9.13965C71.9348 10.3499 71.6767 11.3994 71.1604 12.2881C70.6526 13.1768 69.8993 13.8623 68.9006 14.3447C67.9019 14.8271 66.6747 15.0684 65.219 15.0684H60.1789V12.2373H64.7492C65.6041 12.2373 66.3023 12.1188 66.844 11.8818C67.3941 11.6449 67.7961 11.2979 68.05 10.8408C68.3124 10.3753 68.4436 9.80827 68.4436 9.13965C68.4436 8.47103 68.3124 7.89974 68.05 7.42578C67.7877 6.94336 67.3856 6.57943 66.844 6.33398C66.3023 6.08008 65.5998 5.95312 64.7365 5.95312H61.6008V22H58.1731ZM68.799 22L64.216 13.418H67.9485L72.633 22H68.799ZM81.5649 22.2539C79.9146 22.2539 78.4292 21.8688 77.1089 21.0986C75.797 20.3285 74.7603 19.2197 73.9985 17.7725C73.2453 16.3252 72.8687 14.5859 72.8687 12.5547C72.8687 10.515 73.2453 8.77148 73.9985 7.32422C74.7603 5.86849 75.797 4.75553 77.1089 3.98535C78.4292 3.21517 79.9146 2.83008 81.5649 2.83008C83.2238 2.83008 84.7049 3.21517 86.0083 3.98535C87.3117 4.75553 88.3442 5.86849 89.106 7.32422C89.8677 8.77148 90.2485 10.515 90.2485 12.5547C90.2485 14.5859 89.8677 16.3252 89.106 17.7725C88.3442 19.2197 87.3117 20.3285 86.0083 21.0986C84.7049 21.8688 83.2238 22.2539 81.5649 22.2539ZM81.5649 19.1816C82.589 19.1816 83.4946 18.9277 84.2817 18.4199C85.0689 17.9121 85.6867 17.1673 86.1353 16.1855C86.5838 15.1953 86.8081 13.985 86.8081 12.5547C86.8081 11.1159 86.5838 9.90137 86.1353 8.91113C85.6867 7.9209 85.0689 7.17188 84.2817 6.66406C83.4946 6.15625 82.589 5.90234 81.5649 5.90234C80.5409 5.90234 79.631 6.15625 78.8355 6.66406C78.0483 7.17188 77.4305 7.9209 76.9819 8.91113C76.5334 9.90137 76.3091 11.1159 76.3091 12.5547C76.3091 13.985 76.5334 15.1953 76.9819 16.1855C77.4305 17.1673 78.0483 17.9121 78.8355 18.4199C79.631 18.9277 80.5409 19.1816 81.5649 19.1816ZM100.018 22.2539C98.2833 22.2539 96.7556 21.8604 95.4353 21.0732C94.1235 20.2861 93.0994 19.1689 92.3631 17.7217C91.6267 16.2744 91.2586 14.5563 91.2586 12.5674C91.2586 10.5361 91.6352 8.79264 92.3885 7.33691C93.1502 5.88118 94.1827 4.76823 95.4861 3.99805C96.7895 3.2194 98.2664 2.83008 99.9168 2.83008C100.966 2.83008 101.94 2.98242 102.837 3.28711C103.742 3.5918 104.546 4.02767 105.249 4.59473C105.951 5.15332 106.527 5.81771 106.975 6.58789C107.432 7.35807 107.737 8.20443 107.889 9.12695H104.398C104.246 8.6276 104.034 8.17904 103.763 7.78125C103.501 7.38346 103.179 7.04492 102.799 6.76562C102.426 6.47786 102.003 6.26204 101.529 6.11816C101.055 5.97428 100.53 5.90234 99.9549 5.90234C98.9477 5.90234 98.0463 6.16048 97.2508 6.67676C96.4552 7.18457 95.8289 7.93359 95.3719 8.92383C94.9233 9.9056 94.699 11.1074 94.699 12.5293C94.699 13.9596 94.9233 15.1699 95.3719 16.1602C95.8204 17.1504 96.4467 17.9036 97.2508 18.4199C98.0548 18.9277 98.9858 19.1816 100.044 19.1816C101 19.1816 101.83 18.9997 102.532 18.6357C103.234 18.2633 103.776 17.7386 104.157 17.0615C104.538 16.3844 104.728 15.5846 104.728 14.6621L105.515 14.7891H100.374V12.1104H108.054V14.3701C108.054 15.9951 107.712 17.3958 107.026 18.5723C106.341 19.7487 105.388 20.6585 104.17 21.3018C102.959 21.9365 101.576 22.2539 100.018 22.2539ZM109.61 22V3.08398H116.707C118.163 3.08398 119.382 3.33789 120.363 3.8457C121.354 4.35352 122.103 5.06445 122.61 5.97852C123.118 6.88411 123.372 7.93783 123.372 9.13965C123.372 10.3499 123.114 11.3994 122.598 12.2881C122.09 13.1768 121.337 13.8623 120.338 14.3447C119.339 14.8271 118.112 15.0684 116.656 15.0684H111.616V12.2373H116.187C117.041 12.2373 117.74 12.1188 118.281 11.8818C118.831 11.6449 119.233 11.2979 119.487 10.8408C119.75 10.3753 119.881 9.80827 119.881 9.13965C119.881 8.47103 119.75 7.89974 119.487 7.42578C119.225 6.94336 118.823 6.57943 118.281 6.33398C117.74 6.08008 117.037 5.95312 116.174 5.95312H113.038V22H109.61ZM120.236 22L115.653 13.418H119.386L124.07 22H120.236ZM127.213 22H123.544L130.222 3.08398H134.437L141.102 22H137.446L132.393 6.96875H132.241L127.213 22ZM127.34 14.5859H137.306V17.3281H127.34V14.5859ZM141.845 3.08398H146.047L151.659 16.7822H151.875L157.499 3.08398H161.752V22H158.387V9H158.235L152.979 21.9365H150.516L145.324 8.97461H145.146V22H141.845V3.08398ZM170.392 22.292C168.919 22.292 167.641 22.0635 166.558 21.6064C165.474 21.1494 164.628 20.485 164.018 19.6133C163.409 18.7331 163.079 17.6667 163.028 16.4141H166.405C166.456 17.0742 166.659 17.6243 167.015 18.0645C167.37 18.4961 167.836 18.8219 168.411 19.042C168.995 19.262 169.642 19.3721 170.353 19.3721C171.098 19.3721 171.754 19.2578 172.321 19.0293C172.888 18.8008 173.333 18.4834 173.654 18.0771C173.976 17.6709 174.137 17.1969 174.137 16.6553C174.137 16.1644 173.993 15.7624 173.705 15.4492C173.417 15.1276 173.019 14.8568 172.512 14.6367C172.004 14.4167 171.407 14.222 170.722 14.0527L168.576 13.4941C167.019 13.0964 165.792 12.4912 164.894 11.6787C163.997 10.8577 163.549 9.76595 163.549 8.40332C163.549 7.28613 163.849 6.31283 164.45 5.4834C165.051 4.64551 165.872 3.99382 166.913 3.52832C167.962 3.06283 169.147 2.83008 170.468 2.83008C171.813 2.83008 172.994 3.06283 174.01 3.52832C175.025 3.99382 175.821 4.63704 176.396 5.45801C176.972 6.27897 177.272 7.22266 177.298 8.28906H173.984C173.9 7.47656 173.54 6.85026 172.905 6.41016C172.279 5.96159 171.454 5.7373 170.43 5.7373C169.719 5.7373 169.105 5.8431 168.589 6.05469C168.081 6.26628 167.692 6.55827 167.421 6.93066C167.15 7.30306 167.015 7.72624 167.015 8.2002C167.015 8.72493 167.171 9.15658 167.484 9.49512C167.806 9.8252 168.212 10.0918 168.703 10.2949C169.202 10.498 169.71 10.6673 170.226 10.8027L171.991 11.2471C172.702 11.4163 173.388 11.6449 174.048 11.9326C174.708 12.2119 175.3 12.5674 175.825 12.999C176.358 13.4222 176.777 13.9385 177.082 14.5479C177.395 15.1572 177.552 15.8724 177.552 16.6934C177.552 17.7936 177.268 18.7669 176.701 19.6133C176.134 20.4512 175.317 21.1071 174.251 21.5811C173.184 22.055 171.898 22.292 170.392 22.292Z" fill="white"/>
</svg>
