<svg width="214" height="26" viewBox="0 0 214 26" fill="none" xmlns="http://www.w3.org/2000/svg">
<path d="M22.0387 25H12.6067L1.52588e-05 12.5L12.6067 0L22.0387 0L9.43201 12.5L22.0387 25Z" fill="white"/>
<path d="M35.0258 25L25.5938 25L12.9871 12.5L25.5938 0L35.0258 0L22.4191 12.5L35.0258 25Z" fill="white"/>
<path d="M191.487 25H200.919L213.526 12.5L200.919 0L191.487 0L204.094 12.5L191.487 25Z" fill="white"/>
<path d="M178.5 25L187.932 25L200.539 12.5L187.932 0L178.5 0L191.107 12.5L178.5 25Z" fill="white"/>
<path d="M49.9827 22V3.08398H57.0794C58.5351 3.08398 59.7539 3.35482 60.7357 3.89648C61.7259 4.43815 62.4749 5.18294 62.9827 6.13086C63.4905 7.07878 63.7444 8.15365 63.7444 9.35547C63.7444 10.5658 63.4863 11.6449 62.97 12.5928C62.4622 13.5322 61.709 14.2728 60.7103 14.8145C59.7116 15.3477 58.4844 15.6143 57.0286 15.6143H52.3314V12.7959H56.5589C57.4137 12.7959 58.112 12.652 58.6536 12.3643C59.2038 12.068 59.6058 11.6618 59.8597 11.1455C60.1221 10.6208 60.2532 10.0241 60.2532 9.35547C60.2532 8.67839 60.1221 8.08594 59.8597 7.57812C59.6058 7.06185 59.2038 6.66406 58.6536 6.38477C58.112 6.09701 57.4095 5.95312 56.5462 5.95312H53.4105V22H49.9827ZM64.9703 22V3.08398H72.067C73.5227 3.08398 74.7415 3.33789 75.7232 3.8457C76.7135 4.35352 77.4625 5.06445 77.9703 5.97852C78.4781 6.88411 78.732 7.93783 78.732 9.13965C78.732 10.3499 78.4739 11.3994 77.9576 12.2881C77.4498 13.1768 76.6965 13.8623 75.6978 14.3447C74.6992 14.8271 73.4719 15.0684 72.0162 15.0684H66.9762V12.2373H71.5465C72.4013 12.2373 73.0995 12.1188 73.6412 11.8818C74.1913 11.6449 74.5934 11.2979 74.8473 10.8408C75.1096 10.3753 75.2408 9.80827 75.2408 9.13965C75.2408 8.47103 75.1096 7.89974 74.8473 7.42578C74.5849 6.94336 74.1829 6.57943 73.6412 6.33398C73.0995 6.08008 72.3971 5.95312 71.5338 5.95312H68.398V22H64.9703ZM75.5963 22L71.0133 13.418H74.7457L79.4303 22H75.5963ZM83.5634 3.08398V22H80.1356V3.08398H83.5634ZM93.714 22.2539C92.0552 22.2539 90.5698 21.8688 89.258 21.0986C87.9546 20.3285 86.9263 19.2197 86.173 17.7725C85.4282 16.3252 85.0558 14.5859 85.0558 12.5547C85.0558 10.515 85.4324 8.77148 86.1857 7.32422C86.9474 5.86849 87.98 4.75553 89.2834 3.98535C90.5952 3.21517 92.0721 2.83008 93.714 2.83008C94.755 2.83008 95.7283 2.97819 96.6339 3.27441C97.548 3.57064 98.3605 4.00651 99.0714 4.58203C99.7824 5.14909 100.362 5.84733 100.811 6.67676C101.268 7.49772 101.568 8.43294 101.712 9.48242H98.2589C98.1658 8.9069 97.9839 8.39909 97.713 7.95898C97.4507 7.51888 97.1206 7.14648 96.7228 6.8418C96.3335 6.52865 95.8891 6.2959 95.3898 6.14355C94.8905 5.98275 94.353 5.90234 93.7775 5.90234C92.7449 5.90234 91.8309 6.16048 91.0353 6.67676C90.2397 7.18457 89.6177 7.93783 89.1691 8.93652C88.7205 9.92676 88.4962 11.1328 88.4962 12.5547C88.4962 13.9935 88.7205 15.208 89.1691 16.1982C89.6261 17.18 90.2482 17.9248 91.0353 18.4326C91.8309 18.932 92.7407 19.1816 93.7648 19.1816C94.3319 19.1816 94.8608 19.1097 95.3517 18.9658C95.8426 18.8135 96.2869 18.5892 96.6847 18.293C97.091 17.9883 97.4253 17.6243 97.6877 17.2012C97.9585 16.7695 98.1489 16.2744 98.2589 15.7158H101.712C101.585 16.6214 101.306 17.472 100.874 18.2676C100.451 19.0547 99.8924 19.7487 99.1984 20.3496C98.5128 20.9421 97.7088 21.4076 96.7863 21.7461C95.8638 22.0846 94.8397 22.2539 93.714 22.2539ZM103.128 22V3.08398H115.443V5.95312H106.556V11.0312H114.783V13.8623H106.556V19.1309H115.494V22H103.128ZM117.176 22V3.08398H120.604V19.1309H128.945V22H117.176ZM133.561 3.08398V22H130.133V3.08398H133.561ZM142.2 22.292C140.728 22.292 139.45 22.0635 138.366 21.6064C137.283 21.1494 136.437 20.485 135.827 19.6133C135.218 18.7331 134.888 17.6667 134.837 16.4141H138.214C138.265 17.0742 138.468 17.6243 138.824 18.0645C139.179 18.4961 139.644 18.8219 140.22 19.042C140.804 19.262 141.451 19.3721 142.162 19.3721C142.907 19.3721 143.563 19.2578 144.13 19.0293C144.697 18.8008 145.142 18.4834 145.463 18.0771C145.785 17.6709 145.946 17.1969 145.946 16.6553C145.946 16.1644 145.802 15.7624 145.514 15.4492C145.226 15.1276 144.828 14.8568 144.321 14.6367C143.813 14.4167 143.216 14.222 142.531 14.0527L140.385 13.4941C138.828 13.0964 137.601 12.4912 136.703 11.6787C135.806 10.8577 135.358 9.76595 135.358 8.40332C135.358 7.28613 135.658 6.31283 136.259 5.4834C136.86 4.64551 137.681 3.99382 138.722 3.52832C139.771 3.06283 140.956 2.83008 142.277 2.83008C143.622 2.83008 144.803 3.06283 145.819 3.52832C146.834 3.99382 147.63 4.63704 148.205 5.45801C148.781 6.27897 149.081 7.22266 149.107 8.28906H145.793C145.709 7.47656 145.349 6.85026 144.714 6.41016C144.088 5.96159 143.263 5.7373 142.239 5.7373C141.528 5.7373 140.914 5.8431 140.398 6.05469C139.89 6.26628 139.501 6.55827 139.23 6.93066C138.959 7.30306 138.824 7.72624 138.824 8.2002C138.824 8.72493 138.98 9.15658 139.293 9.49512C139.615 9.8252 140.021 10.0918 140.512 10.2949C141.011 10.498 141.519 10.6673 142.035 10.8027L143.8 11.2471C144.511 11.4163 145.197 11.6449 145.857 11.9326C146.517 12.2119 147.109 12.5674 147.634 12.999C148.167 13.4222 148.586 13.9385 148.891 14.5479C149.204 15.1572 149.361 15.8724 149.361 16.6934C149.361 17.7936 149.077 18.7669 148.51 19.6133C147.943 20.4512 147.126 21.1071 146.06 21.5811C144.993 22.055 143.707 22.292 142.2 22.292ZM149.812 5.95312V3.08398H164.894V5.95312H159.054V22H155.665V5.95312H149.812Z" fill="white"/>
</svg>
