<svg width="214" height="26" viewBox="0 0 214 26" fill="none" xmlns="http://www.w3.org/2000/svg">
<path d="M22.0387 25H12.6067L1.52588e-05 12.5L12.6067 0L22.0387 0L9.43201 12.5L22.0387 25Z" fill="#303030"/>
<path d="M35.0258 25L25.5938 25L12.9871 12.5L25.5938 0L35.0258 0L22.4191 12.5L35.0258 25Z" fill="#303030"/>
<path d="M191.487 25H200.919L213.526 12.5L200.919 0L191.487 0L204.094 12.5L191.487 25Z" fill="#303030"/>
<path d="M178.5 25L187.932 25L200.539 12.5L187.932 0L178.5 0L191.107 12.5L178.5 25Z" fill="#303030"/>
<path d="M49.2451 5.95312V3.08398H64.3271V5.95312H58.4873V22H55.0976V5.95312H49.2451ZM65.4641 22V3.08398H72.5608C74.0165 3.08398 75.2353 3.33789 76.217 3.8457C77.2073 4.35352 77.9563 5.06445 78.4641 5.97852C78.9719 6.88411 79.2258 7.93783 79.2258 9.13965C79.2258 10.3499 78.9677 11.3994 78.4514 12.2881C77.9436 13.1768 77.1903 13.8623 76.1916 14.3447C75.1929 14.8271 73.9657 15.0684 72.51 15.0684H67.47V12.2373H72.0403C72.8951 12.2373 73.5933 12.1188 74.135 11.8818C74.6851 11.6449 75.0871 11.2979 75.3411 10.8408C75.6034 10.3753 75.7346 9.80827 75.7346 9.13965C75.7346 8.47103 75.6034 7.89974 75.3411 7.42578C75.0787 6.94336 74.6767 6.57943 74.135 6.33398C73.5933 6.08008 72.8909 5.95312 72.0276 5.95312H68.8918V22H65.4641ZM76.0901 22L71.5071 13.418H75.2395L79.9241 22H76.0901ZM83.0669 22H79.398L86.0757 3.08398H90.2905L96.9556 22H93.2993L88.2466 6.96875H88.0943L83.0669 22ZM83.1939 14.5859H93.1597V17.3281H83.1939V14.5859ZM101.127 3.08398V22H97.699V3.08398H101.127ZM118.653 3.08398V22H115.581L106.682 9.11426H106.517V22H103.089V3.08398H106.161L115.061 15.9697H115.226V3.08398H118.653ZM120.616 22V3.08398H132.93V5.95312H124.043V11.0312H132.27V13.8623H124.043V19.1309H132.981V22H120.616ZM134.664 22V3.08398H141.76C143.216 3.08398 144.435 3.33789 145.417 3.8457C146.407 4.35352 147.156 5.06445 147.664 5.97852C148.172 6.88411 148.425 7.93783 148.425 9.13965C148.425 10.3499 148.167 11.3994 147.651 12.2881C147.143 13.1768 146.39 13.8623 145.391 14.3447C144.393 14.8271 143.165 15.0684 141.71 15.0684H136.67V12.2373H141.24C142.095 12.2373 142.793 12.1188 143.335 11.8818C143.885 11.6449 144.287 11.2979 144.541 10.8408C144.803 10.3753 144.934 9.80827 144.934 9.13965C144.934 8.47103 144.803 7.89974 144.541 7.42578C144.278 6.94336 143.876 6.57943 143.335 6.33398C142.793 6.08008 142.09 5.95312 141.227 5.95312H138.091V22H134.664ZM145.29 22L140.707 13.418H144.439L149.124 22H145.29ZM156.507 22.292C155.034 22.292 153.756 22.0635 152.673 21.6064C151.589 21.1494 150.743 20.485 150.134 19.6133C149.524 18.7331 149.194 17.6667 149.143 16.4141H152.52C152.571 17.0742 152.774 17.6243 153.13 18.0645C153.485 18.4961 153.951 18.8219 154.526 19.042C155.11 19.262 155.758 19.3721 156.469 19.3721C157.213 19.3721 157.869 19.2578 158.436 19.0293C159.004 18.8008 159.448 18.4834 159.769 18.0771C160.091 17.6709 160.252 17.1969 160.252 16.6553C160.252 16.1644 160.108 15.7624 159.82 15.4492C159.532 15.1276 159.135 14.8568 158.627 14.6367C158.119 14.4167 157.522 14.222 156.837 14.0527L154.691 13.4941C153.134 13.0964 151.907 12.4912 151.01 11.6787C150.113 10.8577 149.664 9.76595 149.664 8.40332C149.664 7.28613 149.964 6.31283 150.565 5.4834C151.166 4.64551 151.987 3.99382 153.028 3.52832C154.078 3.06283 155.263 2.83008 156.583 2.83008C157.929 2.83008 159.109 3.06283 160.125 3.52832C161.141 3.99382 161.936 4.63704 162.512 5.45801C163.087 6.27897 163.388 7.22266 163.413 8.28906H160.1C160.015 7.47656 159.655 6.85026 159.02 6.41016C158.394 5.96159 157.569 5.7373 156.545 5.7373C155.834 5.7373 155.22 5.8431 154.704 6.05469C154.196 6.26628 153.807 6.55827 153.536 6.93066C153.265 7.30306 153.13 7.72624 153.13 8.2002C153.13 8.72493 153.286 9.15658 153.6 9.49512C153.921 9.8252 154.327 10.0918 154.818 10.2949C155.318 10.498 155.825 10.6673 156.342 10.8027L158.106 11.2471C158.817 11.4163 159.503 11.6449 160.163 11.9326C160.823 12.2119 161.416 12.5674 161.94 12.999C162.474 13.4222 162.893 13.9385 163.197 14.5479C163.51 15.1572 163.667 15.8724 163.667 16.6934C163.667 17.7936 163.383 18.7669 162.816 19.6133C162.249 20.4512 161.433 21.1071 160.366 21.5811C159.3 22.055 158.013 22.292 156.507 22.292Z" fill="#303030"/>
</svg>
