<svg width="222" height="26" viewBox="0 0 222 26" fill="none" xmlns="http://www.w3.org/2000/svg">
<path d="M22.0387 25H12.6067L1.52588e-05 12.5L12.6067 0L22.0387 0L9.43201 12.5L22.0387 25Z" fill="#484848"/>
<path d="M35.0258 25L25.5938 25L12.9871 12.5L25.5938 0L35.0258 0L22.4191 12.5L35.0258 25Z" fill="#484848"/>
<path d="M199.487 25H208.919L221.526 12.5L208.919 0L199.487 0L212.094 12.5L199.487 25Z" fill="#484848"/>
<path d="M186.5 25L195.932 25L208.539 12.5L195.932 0L186.5 0L199.107 12.5L186.5 25Z" fill="#484848"/>
<path d="M47.1937 22V3.08398H50.6214V11.0947H59.3812V3.08398H62.8089V22H59.3812V13.9766H50.6214V22H47.1937ZM68.1988 3.08398V22H64.7711V3.08398H68.1988ZM78.451 22.2539C76.716 22.2539 75.1883 21.8604 73.868 21.0732C72.5562 20.2861 71.5321 19.1689 70.7958 17.7217C70.0594 16.2744 69.6913 14.5563 69.6913 12.5674C69.6913 10.5361 70.0679 8.79264 70.8212 7.33691C71.5829 5.88118 72.6154 4.76823 73.9188 3.99805C75.2222 3.2194 76.6991 2.83008 78.3495 2.83008C79.399 2.83008 80.3723 2.98242 81.2694 3.28711C82.175 3.5918 82.979 4.02767 83.6815 4.59473C84.384 5.15332 84.9595 5.81771 85.4081 6.58789C85.8651 7.35807 86.1698 8.20443 86.3221 9.12695H82.8309C82.6786 8.6276 82.467 8.17904 82.1962 7.78125C81.9338 7.38346 81.6122 7.04492 81.2313 6.76562C80.8589 6.47786 80.4357 6.26204 79.9618 6.11816C79.4878 5.97428 78.9631 5.90234 78.3876 5.90234C77.3804 5.90234 76.479 6.16048 75.6835 6.67676C74.8879 7.18457 74.2616 7.93359 73.8046 8.92383C73.356 9.9056 73.1317 11.1074 73.1317 12.5293C73.1317 13.9596 73.356 15.1699 73.8046 16.1602C74.2531 17.1504 74.8794 17.9036 75.6835 18.4199C76.4875 18.9277 77.4185 19.1816 78.4764 19.1816C79.4328 19.1816 80.2622 18.9997 80.9647 18.6357C81.6672 18.2633 82.2089 17.7386 82.5897 17.0615C82.9706 16.3844 83.161 15.5846 83.161 14.6621L83.9481 14.7891H78.8065V12.1104H86.4872V14.3701C86.4872 15.9951 86.1444 17.3958 85.4589 18.5723C84.7733 19.7487 83.8212 20.6585 82.6024 21.3018C81.3921 21.9365 80.0083 22.2539 78.451 22.2539ZM88.0431 22V3.08398H91.4708V11.0947H100.231V3.08398H103.658V22H100.231V13.9766H91.4708V22H88.0431ZM105.621 22V3.08398H109.048V19.1309H117.389V22H105.621ZM122.005 3.08398V22H118.577V3.08398H122.005ZM132.257 22.2539C130.522 22.2539 128.994 21.8604 127.674 21.0732C126.362 20.2861 125.338 19.1689 124.602 17.7217C123.865 16.2744 123.497 14.5563 123.497 12.5674C123.497 10.5361 123.874 8.79264 124.627 7.33691C125.389 5.88118 126.421 4.76823 127.725 3.99805C129.028 3.2194 130.505 2.83008 132.155 2.83008C133.205 2.83008 134.178 2.98242 135.075 3.28711C135.981 3.5918 136.785 4.02767 137.487 4.59473C138.19 5.15332 138.765 5.81771 139.214 6.58789C139.671 7.35807 139.976 8.20443 140.128 9.12695H136.637C136.484 8.6276 136.273 8.17904 136.002 7.78125C135.74 7.38346 135.418 7.04492 135.037 6.76562C134.665 6.47786 134.242 6.26204 133.768 6.11816C133.294 5.97428 132.769 5.90234 132.193 5.90234C131.186 5.90234 130.285 6.16048 129.489 6.67676C128.694 7.18457 128.067 7.93359 127.61 8.92383C127.162 9.9056 126.937 11.1074 126.937 12.5293C126.937 13.9596 127.162 15.1699 127.61 16.1602C128.059 17.1504 128.685 17.9036 129.489 18.4199C130.293 18.9277 131.224 19.1816 132.282 19.1816C133.239 19.1816 134.068 18.9997 134.77 18.6357C135.473 18.2633 136.015 17.7386 136.395 17.0615C136.776 16.3844 136.967 15.5846 136.967 14.6621L137.754 14.7891H132.612V12.1104H140.293V14.3701C140.293 15.9951 139.95 17.3958 139.265 18.5723C138.579 19.7487 137.627 20.6585 136.408 21.3018C135.198 21.9365 133.814 22.2539 132.257 22.2539ZM141.849 22V3.08398H145.277V11.0947H154.036V3.08398H157.464V22H154.036V13.9766H145.277V22H141.849ZM158.601 5.95312V3.08398H173.683V5.95312H167.843V22H164.454V5.95312H158.601Z" fill="#484848"/>
</svg>
